# xmcd
#
# Track frame offsets:
#	150
#	18570
#	33081
#	51110
#	71850
#	94278
#	114915
#	134725
#	148695
#
# Disc length: 2251 seconds
#
# Revision: 1
# Processed by: cddbd v1.5.2PL0 Copyright (c) Steve Scherf et al.
# Submitted via: audiograbber 1.83.01
#
DISCID=8208c909
DTITLE=Discreation - Withstand Temptation
DYEAR=2010
DGENRE=Death Metal
TTITLE0=Liberation
TTITLE1=Rust
TTITLE2=Virgin Mother
TTITLE3=Breeding Terror
TTITLE4=Set The Memories Ablaze
TTITLE5=Worth Fighting For
TTITLE6=Captured And Freed
TTITLE7=Symphony Of Broken Bones Pt.1
TTITLE8=Symphony Of Broken Bones Pt.2
EXTD=
EXTT0=
EXTT1=
EXTT2=
EXTT3=
EXTT4=
EXTT5=
EXTT6=
EXTT7=
EXTT8=
PLAYORDER=
